<svg aria-hidden="true" style="position: absolute; width: 0; height: 0; overflow: hidden;" version="1.1" xmlns="http://www.w3.org/2000/svg" xmlns:xlink="http://www.w3.org/1999/xlink">
<defs>
<symbol id="icon-footer__logo" viewBox="0 0 241 32">
<path d="M0 31.965v-31.965h5.991l14.798 10.372h0.224l14.798-10.372h5.99v31.965h-7.153v-23.024l-10.148 6.795v16.228h-7.153v-16.228l-10.193-6.795v23.024h-7.153z"></path>
<path d="M48.515 31.965v-31.965h7.153v31.965h-7.153z"></path>
<path d="M62.365 31.965v-31.965h7.242l22.621 22.979v-22.979h7.153v31.965h-7.242l-22.621-23.024v23.024h-7.153z"></path>
<path d="M106.077 31.965v-31.965h7.153v31.965h-7.153z"></path>
<path d="M119.927 31.965v-31.965h5.991l14.798 10.372h0.223l14.798-10.372h5.991v31.965h-7.153v-23.024l-10.148 6.795v16.228h-7.153v-16.228l-10.193-6.795v23.024h-7.153z"></path>
<path d="M165.759 31.965l14.395-31.965h11.042l14.396 31.965h-7.78l-3.040-6.751h-18.195l-3.040 6.751h-7.779zM179.171 19.402h13.010l-6.214-13.814h-0.581l-6.214 13.814z"></path>
<path d="M209.623 31.965v-31.965h7.153v26.153h23.381v5.812h-30.534z"></path>
</symbol>
<symbol id="icon-footer_icon_one" viewBox="0 0 32 32">
<path fill="#fff" style="fill: var(--color2, #fff)" d="M31.294 16c0-3.025-0.897-5.982-2.578-8.497s-4.069-4.475-6.864-5.633c-2.795-1.158-5.87-1.46-8.837-0.87s-5.692 2.047-7.831 4.186c-2.139 2.139-3.596 4.864-4.186 7.831s-0.287 6.042 0.87 8.837c1.158 2.795 3.118 5.183 5.633 6.864s5.472 2.578 8.497 2.578c4.055-0.004 7.943-1.616 10.81-4.484s4.48-6.755 4.484-10.81zM17.176 28.882v-9.353h3.529c0.312 0 0.611-0.124 0.832-0.345s0.345-0.52 0.345-0.832c0-0.312-0.124-0.611-0.345-0.832s-0.52-0.345-0.832-0.345h-3.529v-3.529c0-0.624 0.248-1.223 0.689-1.664s1.040-0.689 1.664-0.689h2.353c0.312 0 0.611-0.124 0.832-0.345s0.345-0.52 0.345-0.832c0-0.312-0.124-0.611-0.345-0.832s-0.52-0.345-0.832-0.345h-2.353c-1.247 0.004-2.442 0.501-3.323 1.383s-1.379 2.076-1.383 3.323v3.529h-3.529c-0.312 0-0.611 0.124-0.832 0.345s-0.345 0.52-0.345 0.832c0 0.312 0.124 0.611 0.345 0.832s0.52 0.345 0.832 0.345h3.529v9.353c-3.317-0.303-6.389-1.872-8.577-4.382s-3.326-5.767-3.174-9.094c0.152-3.327 1.58-6.467 3.988-8.768s5.61-3.585 8.94-3.585c3.33 0 6.532 1.284 8.94 3.585s3.836 5.441 3.988 8.768c0.152 3.327-0.985 6.584-3.174 9.094s-5.261 4.080-8.577 4.382z"></path>
</symbol>
<symbol id="icon-footer_icon_three" viewBox="0 0 41 32">
<path fill="#fff" style="fill: var(--color2, #fff)" d="M27.071 14.804l-8.571-5.714c-0.217-0.138-0.466-0.217-0.723-0.229s-0.512 0.042-0.742 0.158c-0.228 0.123-0.419 0.306-0.551 0.53s-0.201 0.479-0.199 0.738v11.429c-0.002 0.26 0.067 0.515 0.199 0.738s0.323 0.407 0.551 0.53c0.211 0.105 0.443 0.16 0.679 0.161 0.278-0.003 0.55-0.083 0.786-0.232l8.571-5.714c0.199-0.13 0.362-0.307 0.476-0.516s0.172-0.443 0.172-0.68c0-0.238-0.059-0.471-0.172-0.68s-0.277-0.386-0.476-0.516zM19.143 19.054v-6.107l4.571 3.054-4.571 3.054zM39.554 5.607c-0.164-0.658-0.486-1.267-0.936-1.774s-1.018-0.897-1.653-1.137c-6.107-2.357-15.857-2.339-16.393-2.339s-10.286-0.018-16.393 2.339c-0.635 0.24-1.202 0.63-1.653 1.137s-0.772 1.116-0.936 1.774c-0.464 1.768-1.018 5.018-1.018 10.393s0.554 8.625 1.018 10.393c0.164 0.658 0.485 1.267 0.936 1.774s1.018 0.897 1.653 1.137c5.857 2.268 15.036 2.339 16.268 2.339h0.25c1.232 0 10.411-0.071 16.268-2.339 0.635-0.24 1.202-0.63 1.653-1.137s0.772-1.116 0.936-1.774c0.464-1.768 1.018-5.018 1.018-10.393s-0.554-8.625-1.018-10.393zM36.786 25.679c-0.053 0.216-0.156 0.416-0.303 0.584s-0.33 0.298-0.537 0.38c-5.661 2.179-15.268 2.143-15.375 2.143h-0.018c-0.089 0-9.696 0.036-15.357-2.143-0.207-0.082-0.391-0.212-0.537-0.38s-0.25-0.368-0.302-0.584c-0.429-1.625-0.929-4.607-0.929-9.679s0.5-8.054 0.929-9.679c0.053-0.216 0.156-0.416 0.302-0.584s0.33-0.298 0.537-0.38c5.446-2.089 14.589-2.143 15.339-2.143h0.036c0.107 0 9.714-0.036 15.375 2.143 0.207 0.082 0.391 0.212 0.537 0.38s0.25 0.368 0.303 0.584c0.429 1.625 0.929 4.607 0.929 9.679s-0.5 8.054-0.929 9.679z"></path>
</symbol>
<symbol id="icon-footer_icon_two" viewBox="0 0 32 32">
<path fill="#fff" style="fill: var(--color2, #fff)" d="M16 8.5c-1.483 0-2.933 0.44-4.167 1.264s-2.195 1.995-2.762 3.366c-0.568 1.37-0.716 2.878-0.427 4.333s1.004 2.791 2.053 3.84 2.385 1.763 3.84 2.053c1.455 0.289 2.963 0.141 4.333-0.427s2.542-1.529 3.366-2.762c0.824-1.233 1.264-2.683 1.264-4.167 0-1.989-0.79-3.897-2.197-5.303s-3.314-2.197-5.303-2.197zM16 21c-0.989 0-1.956-0.293-2.778-0.843s-1.463-1.33-1.841-2.244-0.477-1.919-0.284-2.889c0.193-0.97 0.669-1.861 1.368-2.56s1.59-1.175 2.56-1.368c0.97-0.193 1.975-0.094 2.889 0.284s1.695 1.019 2.244 1.841c0.549 0.822 0.843 1.789 0.843 2.778-0.004 1.325-0.532 2.594-1.469 3.531s-2.206 1.465-3.531 1.469zM22.875 0.375h-13.75c-2.321 0-4.546 0.922-6.187 2.563s-2.563 3.867-2.563 6.187v13.75c0 2.321 0.922 4.546 2.563 6.187s3.867 2.563 6.187 2.563h13.75c2.321 0 4.546-0.922 6.187-2.563s2.563-3.867 2.563-6.187v-13.75c0-2.321-0.922-4.546-2.563-6.187s-3.867-2.563-6.187-2.563zM29.125 22.875c0 0.821-0.162 1.634-0.476 2.392s-0.774 1.447-1.355 2.028c-0.58 0.58-1.269 1.041-2.028 1.355s-1.571 0.476-2.392 0.476h-13.75c-0.821 0-1.633-0.162-2.392-0.476s-1.447-0.774-2.028-1.355c-0.58-0.58-1.041-1.269-1.355-2.028s-0.476-1.571-0.476-2.392v-13.75c0-1.658 0.658-3.247 1.831-4.419s2.762-1.831 4.419-1.831h13.75c0.821 0 1.634 0.162 2.392 0.476s1.447 0.774 2.028 1.355c0.58 0.58 1.041 1.269 1.355 2.028s0.476 1.571 0.476 2.392v13.75zM26 7.875c0 0.371-0.11 0.733-0.316 1.042s-0.499 0.549-0.841 0.691c-0.343 0.142-0.72 0.179-1.083 0.107s-0.698-0.251-0.96-0.513c-0.262-0.262-0.441-0.596-0.513-0.96s-0.035-0.741 0.107-1.083 0.382-0.635 0.691-0.841c0.308-0.206 0.671-0.316 1.042-0.316 0.497 0 0.974 0.198 1.326 0.549s0.549 0.829 0.549 1.326z"></path>
</symbol>
</defs>
</svg>
